<?xml version="1.0" encoding="utf-8"?>
<!-- Generator: Adobe Illustrator 24.1.2, SVG Export Plug-In . SVG Version: 6.00 Build 0)  -->
<svg version="1.0" id="icons" xmlns="http://www.w3.org/2000/svg" xmlns:xlink="http://www.w3.org/1999/xlink" x="0px" y="0px"
	 viewBox="0 0 42 42" style="enable-background:new 0 0 42 42;" xml:space="preserve">
<g id="user">
	<g>
		<path d="M21,19.87c4.2,0,7.62-3.42,7.62-7.62S25.2,4.62,21,4.62s-7.62,3.42-7.62,7.62S16.8,19.87,21,19.87z M21,7.62
			c2.55,0,4.62,2.07,4.62,4.62s-2.08,4.62-4.62,4.62s-4.62-2.07-4.62-4.62S18.45,7.62,21,7.62z M28.12,21.25H13.88
			c-4.14,0-7.5,3.36-7.5,7.5V33c0,1.93,1.57,3.5,3.5,3.5h22.25c1.93,0,3.5-1.57,3.5-3.5v-4.25C35.62,24.61,32.26,21.25,28.12,21.25z
			 M32.62,33c0,0.28-0.22,0.5-0.5,0.5H9.88c-0.28,0-0.5-0.22-0.5-0.5v-4.25c0-2.48,2.02-4.5,4.5-4.5h14.25c2.48,0,4.5,2.02,4.5,4.5
			V33z"/>
	</g>
</g>
</svg>
